<svg width="139" height="52" viewBox="0 0 139 52" fill="none" xmlns="http://www.w3.org/2000/svg">
<rect width="139" height="52" fill="#5373FD"/>
<path d="M57.236 24.694C58.244 25.142 58.748 25.8933 58.748 26.948C58.748 27.872 58.4587 28.6233 57.88 29.202C57.2733 29.8087 56.4427 30.112 55.388 30.112C54.9493 30.112 54.492 30.07 54.016 29.986C53.6427 29.9207 53.2693 29.832 52.896 29.72L52.49 29.58V27.06H53.176C53.3347 27.06 53.428 27.1393 53.456 27.298C53.4747 27.3727 53.498 27.6013 53.526 27.984L53.568 28.6C54.296 28.8613 54.8653 28.992 55.276 28.992C55.6867 28.992 56.032 28.9453 56.312 28.852C56.5827 28.768 56.7973 28.642 56.956 28.474C57.3107 28.1473 57.488 27.704 57.488 27.144C57.488 26.6027 57.236 26.192 56.732 25.912C56.508 25.772 56.256 25.66 55.976 25.576C54.9773 25.268 54.3893 25.072 54.212 24.988C53.9413 24.8667 53.6847 24.6987 53.442 24.484C52.9473 24.0453 52.7 23.42 52.7 22.608C52.7 21.8707 52.966 21.236 53.498 20.704C54.0767 20.144 54.8233 19.864 55.738 19.864C56.7087 19.864 57.6467 20.0507 58.552 20.424V22.734H57.88C57.712 22.734 57.614 22.6547 57.586 22.496C57.586 22.468 57.5767 22.3747 57.558 22.216C57.5487 22.048 57.5253 21.726 57.488 21.25C56.8347 21.0727 56.284 20.984 55.836 20.984C55.2293 20.984 54.7627 21.1333 54.436 21.432C54.1187 21.7213 53.96 22.0947 53.96 22.552C53.96 23.0467 54.212 23.434 54.716 23.714C54.9213 23.8447 55.1827 23.9613 55.5 24.064C56.34 24.344 56.928 24.554 57.264 24.694H57.236ZM68.154 22.398H67.482C67.314 22.398 67.216 22.3187 67.188 22.16L67.09 21.082H63.338V24.414H67.034V25.478H63.338V28.908H67.09L67.174 27.9C67.202 27.7507 67.3047 27.676 67.482 27.676H68.154V30H60.958V29.412C60.958 29.2627 61.028 29.174 61.168 29.146L61.966 28.992V20.998C61.518 20.914 61.252 20.858 61.168 20.83C61.028 20.802 60.958 20.7133 60.958 20.564V19.976H68.154V22.398ZM80.3888 29.216C80.5102 29.244 80.5708 29.3187 80.5708 29.44V30H77.6868V29.44C77.6868 29.3187 77.7522 29.244 77.8828 29.216L78.4568 29.048L77.6728 27.032H73.3468L72.5628 29.048L73.1368 29.216C73.2582 29.244 73.3188 29.3187 73.3188 29.44V30H70.4488V29.44C70.4488 29.3187 70.5095 29.244 70.6308 29.216L71.1908 29.048L74.8308 19.976H76.2028L79.8288 29.048L80.3888 29.216ZM75.8108 22.202C75.7362 22.0153 75.6335 21.698 75.5028 21.25C75.3908 21.6793 75.2975 21.9967 75.2228 22.202L73.7248 26.052H77.2948L75.8108 22.202ZM91.0913 29.132C91.1566 29.1507 91.2079 29.1833 91.2453 29.23C91.2826 29.2673 91.3013 29.3187 91.3013 29.384V30H89.8453C89.6026 30 89.4253 29.902 89.3133 29.706L86.7093 26.122C86.6439 26.0287 86.5599 25.9493 86.4573 25.884C86.3733 25.828 86.2333 25.8 86.0373 25.8H85.1413V28.964L85.9253 29.132C85.9906 29.1507 86.0419 29.1833 86.0793 29.23C86.1259 29.2673 86.1493 29.3187 86.1493 29.384V29.986H82.7753V29.384C82.7753 29.3187 82.7939 29.2673 82.8313 29.23C82.8686 29.1833 82.9199 29.1507 82.9853 29.132L83.7973 28.964V20.984L82.9853 20.816C82.9199 20.7973 82.8686 20.7693 82.8313 20.732C82.7939 20.6853 82.7753 20.6293 82.7753 20.564V19.948H86.4853C87.1106 19.948 87.6613 20.0133 88.1373 20.144C88.6039 20.2747 88.9866 20.4613 89.2853 20.704C89.5933 20.956 89.8173 21.25 89.9573 21.586C90.0973 21.922 90.1673 22.3093 90.1673 22.748C90.1673 23.0933 90.1113 23.42 89.9993 23.728C89.8873 24.0267 89.7239 24.3067 89.5093 24.568C89.2946 24.8293 89.0379 25.0393 88.7393 25.198C88.3659 25.4033 88.0206 25.5387 87.7033 25.604C87.8713 25.7067 88.0206 25.8467 88.1513 26.024L90.3213 28.992C90.7693 29.0667 91.0306 29.1133 91.1053 29.132H91.0913ZM86.4013 24.82C86.8119 24.82 87.1619 24.7733 87.4513 24.68C87.7313 24.5867 87.9833 24.4467 88.2073 24.26C88.4126 24.0827 88.5666 23.8773 88.6693 23.644C88.7719 23.4107 88.8233 23.14 88.8233 22.832C88.8233 22.244 88.6273 21.796 88.2353 21.488C87.8526 21.1893 87.2693 21.04 86.4853 21.04H85.1273V24.82H86.4013ZM101.262 22.916H100.59C100.413 22.916 100.31 22.832 100.282 22.664L100.17 21.404C99.3864 21.152 98.6817 21.026 98.0564 21.026C97.0017 21.026 96.1337 21.3807 95.4524 22.09C94.7711 22.8273 94.4304 23.7933 94.4304 24.988C94.4304 25.7627 94.5704 26.4487 94.8504 27.046C95.1397 27.6433 95.5457 28.11 96.0684 28.446C96.6004 28.7727 97.2164 28.936 97.9164 28.936C98.4577 28.936 98.9291 28.8707 99.3304 28.74C99.7411 28.6 100.124 28.3667 100.478 28.04C100.562 27.9653 100.646 27.928 100.73 27.928C100.805 27.928 100.87 27.956 100.926 28.012L101.458 28.6C100.59 29.608 99.3864 30.112 97.8464 30.112C96.8757 30.112 96.0264 29.8927 95.2984 29.454C94.5797 29.006 94.0244 28.3947 93.6324 27.62C93.2497 26.8453 93.0584 25.968 93.0584 24.988C93.0584 23.4853 93.5251 22.2533 94.4584 21.292C95.3824 20.34 96.6471 19.864 98.2524 19.864C98.9991 19.864 100.002 20.0973 101.262 20.564V22.916ZM112.641 28.978L113.481 29.146C113.593 29.174 113.649 29.258 113.649 29.398V30H110.261V29.398C110.261 29.2487 110.336 29.16 110.485 29.132L111.269 28.978V25.436H105.865V28.978C106.537 29.118 106.873 29.258 106.873 29.398V30H103.499V29.398C103.499 29.2487 103.569 29.16 103.709 29.132L104.507 28.978V20.984L103.667 20.816C103.555 20.788 103.499 20.704 103.499 20.564V19.976H106.873V20.564C106.873 20.704 106.826 20.788 106.733 20.816C106.63 20.844 106.346 20.9 105.879 20.984V24.442H111.283V20.984L110.443 20.816C110.331 20.788 110.275 20.704 110.275 20.564V19.976H113.663V20.564C113.663 20.7133 113.593 20.802 113.453 20.83L112.641 20.984V28.978Z" fill="white"/>
<g clip-path="url(#clip0_1_158)">
<path d="M39.7824 31.833L36.6666 28.7177C36.5259 28.5771 36.3353 28.499 36.1353 28.499H35.6259C36.4884 27.396 37.001 26.0086 37.001 24.4994C37.001 20.9091 34.0914 18 30.5005 18C26.9096 18 24 20.9091 24 24.4994C24 28.0896 26.9096 30.9987 30.5005 30.9987C32.01 30.9987 33.3976 30.4863 34.5008 29.6239V30.1332C34.5008 30.3332 34.5789 30.5238 34.7195 30.6644L37.8354 33.7797C38.1292 34.0734 38.6042 34.0734 38.8948 33.7797L39.7793 32.8954C40.0731 32.6017 40.0731 32.1267 39.7824 31.833ZM30.5005 28.499C28.2909 28.499 26.5002 26.7116 26.5002 24.4994C26.5002 22.2902 28.2878 20.4998 30.5005 20.4998C32.71 20.4998 34.5008 22.2871 34.5008 24.4994C34.5008 26.7085 32.7131 28.499 30.5005 28.499Z" fill="white"/>
</g>
<defs>
<clipPath id="clip0_1_158">
<rect width="16" height="16" fill="white" transform="translate(24 18)"/>
</clipPath>
</defs>
</svg>
